<svg width="76" height="76" viewBox="0 0 76 76" fill="none" xmlns="http://www.w3.org/2000/svg">
<path fill-rule="evenodd" clip-rule="evenodd" d="M38.3967 5C25.4069 5 15 15.0231 15 27.2387C15 39.4543 25.4069 49.4774 38.3967 49.4774C51.3865 49.4774 61.7934 39.4543 61.7934 27.2387C61.7934 15.0231 51.3865 5 38.3967 5ZM12 27.2387C12 13.2332 23.8863 2 38.3967 2C52.9071 2 64.7934 13.2332 64.7934 27.2387C64.7934 41.2442 52.9071 52.4774 38.3967 52.4774C23.8863 52.4774 12 41.2442 12 27.2387ZM42.6694 14.6785C42.0877 14.4742 41.4666 14.3159 40.8062 14.2038V11.6059H36.2748V14.1032C34.9906 14.2467 33.8354 14.5391 32.8093 14.9803C31.3141 15.6343 30.1541 16.5272 29.3292 17.6591C28.5301 18.791 28.1305 20.0864 28.1305 21.5452C28.1305 23.0544 28.4527 24.2995 29.0972 25.2804C29.7674 26.2614 30.747 27.0789 32.0359 27.7328C33.3506 28.3617 34.9746 28.9024 36.908 29.3552C38.5836 29.7576 39.9241 30.1475 40.9294 30.5248C41.9605 30.8769 42.721 31.2794 43.2108 31.7321C43.7006 32.1597 43.9455 32.7383 43.9455 33.4677C43.9455 34.499 43.4815 35.3164 42.5534 35.9201C41.6512 36.5238 40.2721 36.8256 38.416 36.8256C37.256 36.8256 36.2893 36.6747 35.516 36.3728C34.7684 36.071 34.1755 35.6937 33.7373 35.241C33.299 34.7631 33.0026 34.2852 32.8479 33.8072C32.719 33.606 32.5644 33.4425 32.3839 33.3168C32.2293 33.1658 31.9844 33.0904 31.6492 33.0904H28.2078C27.9758 33.0904 27.7825 33.1658 27.6278 33.3168C27.4732 33.4677 27.3958 33.6563 27.3958 33.8827C27.4474 35.1152 27.8856 36.2974 28.7105 37.4293C29.5612 38.536 30.7857 39.4415 32.3839 40.1458C33.4987 40.6119 34.7957 40.9181 36.2748 41.0643V44.0295H40.8062V41.0271C42.0334 40.8787 43.1572 40.6101 44.1775 40.2212C45.8273 39.5924 47.1033 38.6995 48.0055 37.5424C48.9336 36.3603 49.3976 34.9391 49.3976 33.279C49.3976 31.795 49.0753 30.5751 48.4309 29.6193C47.7864 28.6383 46.7682 27.8334 45.3762 27.2046C43.9841 26.5758 42.1925 26.0224 40.0014 25.5445C38.4547 25.1421 37.2045 24.7648 36.2507 24.4127C35.3226 24.0605 34.6395 23.6581 34.2013 23.2053C33.7888 22.7274 33.5826 22.1363 33.5826 21.432C33.5826 20.3756 34.008 19.5959 34.8586 19.0928C35.7093 18.5898 36.8307 18.3382 38.2227 18.3382C39.5632 18.3382 40.6587 18.6149 41.5094 19.1683C42.3601 19.7216 42.8628 20.3882 43.0175 21.1679C43.1463 21.4446 43.3139 21.6333 43.5201 21.7339C43.7264 21.8345 43.9326 21.8848 44.1388 21.8848H47.7349C47.9927 21.8848 48.186 21.8093 48.3149 21.6584C48.4695 21.4823 48.5469 21.2937 48.5469 21.0925C48.5211 20.3127 48.2762 19.5204 47.8122 18.7155C47.374 17.8855 46.7295 17.1183 45.8788 16.414C45.0282 15.6846 43.9584 15.1061 42.6694 14.6785ZM18.1318 55.6094H59.2727V59.9518H18.1318V55.6094ZM18.1318 69.7947H59.2727V74.1371H18.1318V69.7947ZM64.4512 62.8468H23.3104V66.8997H64.4512V62.8468Z" fill="#FF5100"/>
</svg>
